<?xml version="1.0" encoding="UTF-8"?>
<svg width="110px" height="32px" viewBox="0 0 110 32" version="1.1" xmlns="http://www.w3.org/2000/svg" xmlns:xlink="http://www.w3.org/1999/xlink">
    <title>编组 13</title>
    <defs>
        <polygon id="path-1" points="0 0 17.4093236 0 17.4093236 18.1281746 0 18.1281746"></polygon>
        <path d="M2.83630753,2.90369082 C-0.945435843,6.77512526 -0.945435843,13.0512002 2.83630753,16.9240145 L2.83630753,16.9240145 C6.61943076,20.7945291 12.7510801,20.7945291 16.5342033,16.9240145 L16.5342033,16.9240145 C20.3159467,13.0512002 20.3159467,6.77512526 16.5342033,2.90369082 L16.5342033,2.90369082 C14.6428717,0.967743622 12.1637186,0.000459954193 9.68502546,0 L9.68502546,0 C7.20679227,0 4.72901903,0.967743622 2.83630753,2.90369082" id="path-3"></path>
        <path d="M2.5521541,2.61300013 C-0.664765527,5.90719206 -0.86806528,11.038441 2.09863926,14.0750586 L2.09863926,14.0750586 C5.06580375,17.1125961 10.0788445,16.9046968 13.296684,13.6109648 L13.296684,13.6109648 C16.5149835,10.3181528 16.7169034,5.18598389 13.7497389,2.14798644 L13.7497389,2.14798644 C12.3454988,0.711549496 10.4808445,2.21726201e-16 8.56651511,2.21726201e-16 L8.56651511,2.21726201e-16 C6.43738715,-0.000459593113 4.24662534,0.87759296 2.5521541,2.61300013" id="path-5"></path>
        <path d="M7.37366669,0 L7.52610098,0.00222964562 C8.63980058,0.0349460849 9.65961902,0.428037372 10.4181035,1.20324017 L10.4181035,1.20324017 L10.4996329,1.28942938 C12.2925061,3.24663715 10.3521567,5.44829075 7.83822042,8.02206108 L7.83822042,8.02206108 L7.73060011,8.13213653 C7.5874028,8.27839548 7.44538946,8.42257074 7.30453686,8.56405909 L7.09412557,8.77420112 C4.85896207,10.9926121 2.91796086,12.4459717 1.17578394,10.663578 L1.17578394,10.663578 L1.08694876,10.5695814 C-0.741178355,8.56930381 -0.214319804,4.92348624 2.29899208,2.35312565 C3.8039622,0.811359196 5.68609475,0 7.37366669,0 L7.37366669,0 Z" id="path-7"></path>
        <path d="M4.52088976,0 L4.60402501,0.00533111443 C4.85258379,0.0306289406 5.09355692,0.140432205 5.32795216,0.355398415 L5.40584163,0.430977079 L5.48673032,0.518614911 C5.82503353,0.906893522 6.00478593,1.40420458 6.03526939,1.94587485 L6.0396585,2.07163368 L6.0396585,2.15212567 L6.03507575,2.28431887 C5.98842021,3.12309877 5.60668302,4.03139836 4.91891793,4.7869228 L4.80146182,4.91139087 L4.69100644,5.02084369 C3.94871383,5.73285986 3.0551983,6.12824669 2.23065631,6.17579244 L2.10107075,6.18040449 L2.0242584,6.18040449 L1.90141248,6.17603405 C1.37223075,6.14531495 0.885657809,5.96122725 0.506067498,5.61508794 L0.420398132,5.53232903 L0.346372116,5.45230666 C0.135834737,5.2115108 0.0284449357,4.96410903 0.00480481074,4.70884172 L0,4.62345955 L0,4.5696449 L0.00520113014,4.47845339 C0.075319814,3.71702492 0.808746491,2.88755068 1.70002423,1.96931819 L1.81221952,1.85407535 L1.92034979,1.74378003 C2.81795508,0.830819559 3.62882093,0.0789382861 4.37302929,0.0055204084 L4.46201562,0 L4.52088976,0 Z" id="path-9"></path>
    </defs>
    <g id="工作概览-0916" stroke="none" stroke-width="1" fill="none" fill-rule="evenodd">
        <g id="编组-13">
            <rect id="矩形" fill="#4A4A4A" opacity="0" x="0" y="0" width="110" height="32"></rect>
            <g id="logo" transform="translate(0.000000, 5.000000)">
                <g id="编组">
                    <g id="Fill-1-Clipped">
                        <mask id="mask-2" fill="white">
                            <use xlink:href="#path-1"></use>
                        </mask>
                        <g id="path-1"></g>
                        <path d="M7.51307577,15.0023259 C3.82516305,15.0023259 3.8578198,12.7871865 4.52521333,8.99900378 C5.04358171,6.05897658 6.20220632,3.11526975 9.89011903,3.11526975 C13.5541141,3.11526975 13.4179677,6.05897658 12.8986794,8.99900378 C12.8260066,9.41296255 12.7468945,9.80438357 12.661803,10.1801661 L10.1164165,8.15958738 L10.1122769,8.16510683 L9.36485135,12.3897861 L11.055643,13.7314725 C10.2626819,14.5575502 9.14913283,15.0023259 7.51307577,15.0023259 M17.0861024,8.99900378 C17.9301183,4.21502022 17.5672145,0 10.4397643,0 C3.31231412,0 1.18134635,4.21502022 0.338250313,8.99900378 C-0.536122607,13.9582299 -0.162639803,18.1171357 6.96481037,18.1171357 C10.1380343,18.1171357 12.3168374,17.2915179 13.836986,15.9387926 L16.5953313,18.1281746 L17.3436767,13.8956761 L16.00521,12.8331819 C16.5106997,11.6612186 16.8460063,10.3609281 17.0861024,8.99900378" id="Fill-1" fill="#1F4DC1" fill-rule="nonzero" mask="url(#mask-2)"></path>
                    </g>
                    <path d="M23.8553862,18.1191135 C23.8728645,18.1191135 30.1475596,18.1264728 30.1475596,18.1264728 L32.412374,5.12540756 L28.3652371,5.12540756 L26.7029626,14.8837957 L24.3300589,14.8837957 C23.6116105,14.8837957 23.2588256,14.3714067 23.3370178,13.766107 L24.8383083,5.12540756 L20.785192,5.12540756 L19.4237276,13.0895144 C18.7949702,15.7853059 20.6311073,18.2957359 23.8553862,18.1191135" id="Fill-3" fill="#1F4DC1" fill-rule="nonzero"></path>
                    <path d="M41.2240385,5.14697941 C37.8902905,5.14697941 35.1268857,6.20717382 35.1268857,6.20717382 L34.4774304,9.74606138 C36.4078581,8.64907063 38.829057,8.14542079 40.1063498,8.13300203 C41.138487,8.12334299 41.5878622,8.57823769 41.4314778,9.21665411 C41.2819927,9.82931309 40.3588646,10.1876174 38.6160982,10.3734389 C35.1126271,10.8706494 33.2226753,12.2192351 32.8703504,14.4941685 C32.7148859,16.5520036 34.8090573,18.1135481 36.549984,18.1232071 C38.3047092,18.1324062 40.1109493,18.1255069 40.1109493,18.1255069 L44.140608,18.1255069 L44.491553,16.065372 L45.4891937,10.342622 C46.0967932,6.99415545 43.9580062,5.14697941 41.2240385,5.14697941 M40.5870019,15.4991684 L38.7922606,15.4991684 C37.6704324,15.4991684 37.1700022,15.1155666 37.1700022,14.3557223 C37.1700022,13.5544821 37.9919403,13.214116 39.2278373,12.9183654 C39.9646839,12.742203 40.776963,12.5191252 41.1219286,12.4487522 C40.8132994,14.2641914 40.5870019,15.4991684 40.5870019,15.4991684" id="Fill-5" fill="#1F4DC1" fill-rule="nonzero"></path>
                    <path d="M74.6888337,14.318696 C73.7583463,14.5951285 72.1590856,14.941014 71.4295983,14.941014 C70.7465663,14.941014 70.2967311,14.7643916 70.5060102,13.57541 L71.4355777,8.26707867 L75.6041425,8.26707867 L76.1565475,5.12973113 L71.9889026,5.12973113 L72.8503968,0.207761309 L68.8032598,0.207761309 L67.9422256,5.12421168 L65.1806606,5.12421168 L64.6264158,8.26523886 L67.3879808,8.26523886 L66.3070884,14.4355244 C65.7900999,17.3695721 67.5784018,18.1280366 69.9572849,18.1280366 C70.7783031,18.1280366 72.8310787,17.8451648 74.1092914,17.6064486 L74.6888337,14.318696 Z" id="Fill-7" fill="#1F4DC1" fill-rule="nonzero"></path>
                    <path d="M82.5435634,0.746413664 C82.2800097,0.396848477 81.8241951,0.222065884 81.1761196,0.222065884 C80.5487421,0.222065884 79.9480419,0.37845031 79.5391426,0.72847545 C79.1302433,1.07758068 78.942582,1.58215043 78.8091953,2.20446845 C78.6808681,2.80102904 78.7558406,3.26788255 79.0322731,3.60916856 C79.3091655,3.94953466 79.7456621,4.11879781 80.3413027,4.11879781 C80.9631608,4.11879781 81.5500624,3.98587104 81.9741401,3.65240425 C82.3963781,3.31847751 82.608417,2.81344781 82.7395039,2.20446845 C82.8728906,1.58215043 82.8071172,1.0964388 82.5435634,0.746413664 L82.5435634,0.746413664 Z M77.4104746,10.2440078 L76.0195731,18.1280826 L79.9305636,18.1280826 L82.2229753,5.13345675 L78.3133647,5.13345675 L77.4104746,10.2440078 Z" id="Fill-9" fill="#1F4DC1" fill-rule="nonzero"></path>
                    <path d="M63.3925887,0.746413664 C63.1290349,0.396848477 62.6732203,0.222065884 62.0251449,0.222065884 C61.3977673,0.222065884 60.7970672,0.37845031 60.3881679,0.72847545 C59.9792686,1.07758068 59.7916073,1.58215043 59.6582206,2.20446845 C59.5298934,2.80102904 59.6048659,3.26788255 59.8812984,3.60916856 C60.1581908,3.94953466 60.5946873,4.11879781 61.190328,4.11879781 C61.8121861,4.11879781 62.3990876,3.98587104 62.8231654,3.65240425 C63.2454033,3.31847751 63.4574422,2.81344781 63.5885292,2.20446845 C63.7219159,1.58215043 63.6561424,1.0964388 63.3925887,0.746413664 L63.3925887,0.746413664 Z M58.2594999,10.2440078 L56.8685984,18.1280826 L60.7795889,18.1280826 L63.0720006,5.13345675 L59.16239,5.13345675 L58.2594999,10.2440078 Z" id="Fill-11" fill="#1F4DC1" fill-rule="nonzero"></path>
                    <path d="M52.0055487,14.7637937 C51.4416449,14.7196381 51.1233566,14.4353864 51.3059584,13.4014093 L53.649885,0.237980299 L49.6561027,0.237980299 L47.1511922,14.4363063 C46.6889382,17.0621848 48.0301646,17.9572556 50.0318853,18.1118002 C50.3193566,18.1306584 50.7443543,18.1403174 51.2788211,18.1012213 C51.2884801,18.1003014 51.299519,18.0993815 51.309638,18.0984616 C51.3533337,18.0952419 51.3979492,18.0911023 51.4416449,18.0874227 C52.0483245,18.0313082 52.8615235,17.9126401 53.8743426,17.6707042 L53.8674433,17.6716241 C54.192171,17.5961916 54.4805622,17.5179994 54.7353769,17.441187 L55.3521754,13.9082789 C53.2828415,14.7375763 52.3201574,14.7821918 52.0055487,14.7637937" id="Fill-13" fill="#1F4DC1" fill-rule="nonzero"></path>
                </g>
                <g id="Fill-15-Clipped" transform="translate(82.806243, 2.173100)">
                    <mask id="mask-4" fill="white">
                        <use xlink:href="#path-3"></use>
                    </mask>
                    <g id="path-3"></g>
                    <path d="M2.83630753,2.90369082 C-0.945435843,6.77512526 -0.945435843,13.0512002 2.83630753,16.9240145 L2.83630753,16.9240145 C6.61943076,20.7945291 12.7510801,20.7945291 16.5342033,16.9240145 L16.5342033,16.9240145 C20.3159467,13.0512002 20.3159467,6.77512526 16.5342033,2.90369082 L16.5342033,2.90369082 C14.6428717,0.967743622 12.1637186,0.000459954193 9.68502546,0 L9.68502546,0 C7.20679227,0 4.72901903,0.967743622 2.83630753,2.90369082" id="Fill-15" fill="#1F4DC1" fill-rule="nonzero" mask="url(#mask-4)"></path>
                </g>
                <g id="Fill-17-Clipped" transform="translate(83.334172, 2.712626)">
                    <mask id="mask-6" fill="white">
                        <use xlink:href="#path-5"></use>
                    </mask>
                    <g id="path-5"></g>
                    <path d="M2.5521541,2.61300013 C-0.664765527,5.90719206 -0.86806528,11.038441 2.09863926,14.0750586 L2.09863926,14.0750586 C5.06580375,17.1125961 10.0788445,16.9046968 13.296684,13.6109648 L13.296684,13.6109648 C16.5149835,10.3181528 16.7169034,5.18598389 13.7497389,2.14798644 L13.7497389,2.14798644 C12.3454988,0.711549496 10.4808445,2.21726201e-16 8.56651511,2.21726201e-16 L8.56651511,2.21726201e-16 C6.43738715,-0.000459593113 4.24662534,0.87759296 2.5521541,2.61300013" id="Fill-17" mask="url(#mask-6)"></path>
                </g>
                <g id="Fill-19-Clipped" transform="translate(83.994394, 3.388759)">
                    <mask id="mask-8" fill="white">
                        <use xlink:href="#path-7"></use>
                    </mask>
                    <g id="path-7"></g>
                    <polygon id="Fill-19" mask="url(#mask-8)" points="5.79694371 19.3484331 -6.93274853 6.32069052 5.79694371 -6.70705204 18.5238762 6.32069052"></polygon>
                </g>
                <g id="编组" transform="translate(87.808889, 5.549434)">
                    <g transform="translate(6.302338, 8.295463)" id="Fill-21-Clipped">
                        <mask id="mask-10" fill="white">
                            <use xlink:href="#path-9"></use>
                        </mask>
                        <g id="path-9"></g>
                        <polygon id="Fill-21" mask="url(#mask-10)" points="2.91334986 -4.25457628 9.98146594 2.98142308 2.91334986 10.2178824 -4.15522618 2.98142308"></polygon>
                    </g>
                    <path d="M8.71521204,6.03557052 C8.50731275,5.78719526 8.2386995,5.57929596 7.91121212,5.41095273 C7.58326478,5.24168959 7.20610234,5.1000237 6.78064471,4.98365529 L5.48449379,4.61017248 C5.43389883,4.59453404 5.38284392,4.57843565 5.33224896,4.5618773 C4.46707512,4.26888647 4.25917582,3.86090711 4.21869986,3.76293686 C4.04023763,3.25974698 4.34288749,2.84670811 4.34288749,2.84670811 C4.7504069,2.15033746 6.22226032,2.04868759 6.95312753,2.06616585 L9.16136761,2.06616585 L9.51553234,0.00649097052 C9.16918683,0.00649097052 8.9024134,0.0106305583 8.49811367,0.00649097052 C7.89741349,0.00189142859 7.24151881,-0.00546783849 6.61644106,0.00649097052 C5.11515058,0.0317884511 3.88799279,0.210710632 2.89265192,0.839008059 C1.89915086,1.46868535 1.32696785,2.1429782 1.11308915,3.25468748 C0.935546828,4.17505582 1.05283515,4.86452715 1.46817378,5.32540125 C1.88305247,5.78535544 2.51686934,6.13400072 3.3677846,6.36765745 L4.56458541,6.74114026 C4.64461744,6.76459792 4.73384855,6.79173522 4.82399957,6.82071233 C5.12802929,6.9214423 5.62248005,7.10542398 5.8961528,7.32344226 C6.1380887,7.53548115 6.32896969,7.84641018 6.24433812,8.28980602 C6.19512302,8.53818129 6.08013447,8.74010118 5.89845257,8.89280597 C5.71723062,9.04597072 5.50427182,9.17015835 5.26279587,9.263989 C5.01948011,9.36011943 4.76282567,9.42589288 4.49099274,9.46222926 C4.22053967,9.49856564 3.97216441,9.50546495 3.74816672,9.51650385 C3.50899054,9.53030248 3.35950542,9.55146037 2.98832239,9.54272124 L0.413038865,9.54272124 L0,11.944602 L0.206519433,11.944602 C0.206519433,11.944602 3.89949165,11.9864579 4.81756021,11.8397325 C4.95876615,11.8185746 5.09445264,11.8001764 5.22783935,11.7711993 C5.24485766,11.7675197 5.26279587,11.7656799 5.28027413,11.7610803 L5.27521464,11.7592405 C5.32212996,11.7495815 5.37088511,11.7394625 5.41780044,11.7270437 C6.12796971,11.5292634 6.78064471,11.2031559 7.31971102,10.8591101 C7.41400163,10.7997761 7.50139293,10.7358424 7.59062404,10.670069 C8.67933562,9.85962968 9.0178619,8.64857029 9.10433329,8.2327717 C9.19632413,7.73418136 9.20782298,7.30826378 9.13699004,6.95685877 C9.06339737,6.58981533 8.92219143,6.28348583 8.71521204,6.03557052" id="Fill-23" fill="#FEFEFE" fill-rule="nonzero"></path>
                </g>
            </g>
        </g>
    </g>
</svg>